<mxfile host="app.diagrams.net" modified="2021-12-24T14:14:47.819Z" agent="5.0 (Macintosh; Intel Mac OS X 10_15_7) AppleWebKit/605.1.15 (KHTML, like Gecko) Version/15.2 Safari/605.1.15" etag="yw4dNl-Jt_2ysJJE4DBq" version="16.1.0" type="github">
  <diagram id="6LURawLXkcAlEE9YDqgw" name="Page-1">
    <mxGraphModel dx="1426" dy="825" grid="1" gridSize="10" guides="1" tooltips="1" connect="1" arrows="1" fold="1" page="1" pageScale="1" pageWidth="850" pageHeight="1100" background="#333333" math="0" shadow="0">
      <root>
        <mxCell id="0" />
        <mxCell id="1" parent="0" />
        <mxCell id="BdYwd6LRBAAUdGtZzh2q-3" value="Fist Little Pig" style="swimlane;fontStyle=0;childLayout=stackLayout;horizontal=1;startSize=30;horizontalStack=0;resizeParent=1;resizeParentMax=0;resizeLast=0;collapsible=1;marginBottom=0;fontFamily=Comic Sans MS;fontColor=#FFFFFF;labelBackgroundColor=none;fillColor=#FFB570;strokeColor=#FFB570;" vertex="1" parent="1">
          <mxGeometry x="120" y="120" width="190" height="90" as="geometry" />
        </mxCell>
        <mxCell id="BdYwd6LRBAAUdGtZzh2q-4" value="+ func getMaterial() “straw”" style="text;strokeColor=none;fillColor=none;align=left;verticalAlign=middle;spacingLeft=4;spacingRight=4;overflow=hidden;points=[[0,0.5],[1,0.5]];portConstraint=eastwest;rotatable=0;fontFamily=Comic Sans MS;fontColor=#FFB570;" vertex="1" parent="BdYwd6LRBAAUdGtZzh2q-3">
          <mxGeometry y="30" width="190" height="30" as="geometry" />
        </mxCell>
        <mxCell id="BdYwd6LRBAAUdGtZzh2q-5" value="+ func buildHouse() house" style="text;strokeColor=none;fillColor=none;align=left;verticalAlign=middle;spacingLeft=4;spacingRight=4;overflow=hidden;points=[[0,0.5],[1,0.5]];portConstraint=eastwest;rotatable=0;fontFamily=Comic Sans MS;fontColor=#FFFFFF;" vertex="1" parent="BdYwd6LRBAAUdGtZzh2q-3">
          <mxGeometry y="60" width="190" height="30" as="geometry" />
        </mxCell>
        <mxCell id="BdYwd6LRBAAUdGtZzh2q-7" value="Second Little Pig" style="swimlane;fontStyle=0;childLayout=stackLayout;horizontal=1;startSize=30;horizontalStack=0;resizeParent=1;resizeParentMax=0;resizeLast=0;collapsible=1;marginBottom=0;fontFamily=Comic Sans MS;fontColor=#FFFFFF;labelBackgroundColor=none;fillColor=#FFB570;strokeColor=#FFB570;" vertex="1" parent="1">
          <mxGeometry x="360" y="120" width="190" height="90" as="geometry" />
        </mxCell>
        <mxCell id="BdYwd6LRBAAUdGtZzh2q-8" value="+ func getMaterial() “sticks”" style="text;strokeColor=none;fillColor=none;align=left;verticalAlign=middle;spacingLeft=4;spacingRight=4;overflow=hidden;points=[[0,0.5],[1,0.5]];portConstraint=eastwest;rotatable=0;fontFamily=Comic Sans MS;fontColor=#FFB570;" vertex="1" parent="BdYwd6LRBAAUdGtZzh2q-7">
          <mxGeometry y="30" width="190" height="30" as="geometry" />
        </mxCell>
        <mxCell id="BdYwd6LRBAAUdGtZzh2q-9" value="+ func buildHouse() house" style="text;strokeColor=none;fillColor=none;align=left;verticalAlign=middle;spacingLeft=4;spacingRight=4;overflow=hidden;points=[[0,0.5],[1,0.5]];portConstraint=eastwest;rotatable=0;fontFamily=Comic Sans MS;fontColor=#FFFFFF;" vertex="1" parent="BdYwd6LRBAAUdGtZzh2q-7">
          <mxGeometry y="60" width="190" height="30" as="geometry" />
        </mxCell>
        <mxCell id="BdYwd6LRBAAUdGtZzh2q-10" value="Third Little Pig" style="swimlane;fontStyle=0;childLayout=stackLayout;horizontal=1;startSize=30;horizontalStack=0;resizeParent=1;resizeParentMax=0;resizeLast=0;collapsible=1;marginBottom=0;fontFamily=Comic Sans MS;fontColor=#FFFFFF;labelBackgroundColor=none;fillColor=#FFB570;strokeColor=#FFB570;" vertex="1" parent="1">
          <mxGeometry x="600" y="120" width="190" height="90" as="geometry" />
        </mxCell>
        <mxCell id="BdYwd6LRBAAUdGtZzh2q-11" value="+ func getMaterial() “bricks”" style="text;strokeColor=none;fillColor=none;align=left;verticalAlign=middle;spacingLeft=4;spacingRight=4;overflow=hidden;points=[[0,0.5],[1,0.5]];portConstraint=eastwest;rotatable=0;fontFamily=Comic Sans MS;fontColor=#FFB570;whiteSpace=wrap;" vertex="1" parent="BdYwd6LRBAAUdGtZzh2q-10">
          <mxGeometry y="30" width="190" height="30" as="geometry" />
        </mxCell>
        <mxCell id="BdYwd6LRBAAUdGtZzh2q-12" value="+ func buildHouse() house" style="text;strokeColor=none;fillColor=none;align=left;verticalAlign=middle;spacingLeft=4;spacingRight=4;overflow=hidden;points=[[0,0.5],[1,0.5]];portConstraint=eastwest;rotatable=0;fontFamily=Comic Sans MS;fontColor=#FFFFFF;" vertex="1" parent="BdYwd6LRBAAUdGtZzh2q-10">
          <mxGeometry y="60" width="190" height="30" as="geometry" />
        </mxCell>
      </root>
    </mxGraphModel>
  </diagram>
</mxfile>
